HIERARCHY
ROOT Hips
{
	OFFSET	0.000000	0.000000	0.000000
	CHANNELS 6 Xposition Yposition Zposition Zrotation Xrotation Yrotation
	JOINT LeftUpLeg
	{
		OFFSET	12.811937	-7.635976	0.557276
		CHANNELS 3 Zrotation Xrotation Yrotation
		JOINT LeftLeg
		{
			OFFSET	-0.429270	-42.206159	-1.204951
			CHANNELS 3 Zrotation Xrotation Yrotation
			JOINT LeftFoot
			{
				OFFSET	-2.112259	-42.464481	-3.973220
				CHANNELS 3 Zrotation Xrotation Yrotation
				JOINT LeftFootHeel
				{
					OFFSET	0.387196	-5.329707	-3.419729
					CHANNELS 3 Zrotation Xrotation Yrotation
					End Site
					{
						OFFSET	0.327567	-0.000003	16.505428
					}
				}
			}
		}
	}
	JOINT RightUpLeg
	{
		OFFSET	-12.811937	-7.635976	0.557276
		CHANNELS 3 Zrotation Xrotation Yrotation
		JOINT RightLeg
		{
			OFFSET	0.429270	-42.206159	-1.204951
			CHANNELS 3 Zrotation Xrotation Yrotation
			JOINT RightFoot
			{
				OFFSET	2.112259	-42.464481	-3.973220
				CHANNELS 3 Zrotation Xrotation Yrotation
				JOINT RightFootHeel
				{
					OFFSET	-0.387198	-5.329707	-3.419729
					CHANNELS 3 Zrotation Xrotation Yrotation
					End Site
					{
						OFFSET	-0.327566	-0.000003	16.505428
					}
				}
			}
		}
	}
	JOINT Spine
	{
		OFFSET	0.000000	13.731315	-1.007646
		CHANNELS 3 Zrotation Xrotation Yrotation
		JOINT Spine1
		{
			OFFSET	0.000000	12.091746	-0.604589
			CHANNELS 3 Zrotation Xrotation Yrotation
			JOINT LeftShoulder
			{
				OFFSET	5.746115	20.990027	-0.833816
				CHANNELS 3 Zrotation Xrotation Yrotation
				JOINT LeftArm
				{
					OFFSET	10.881538	-1.359258	0.219250
					CHANNELS 3 Zrotation Xrotation Yrotation
					JOINT LeftForeArm
					{
						OFFSET	4.390314	-31.537147	0.202818
						CHANNELS 3 Zrotation Xrotation Yrotation
						JOINT LeftHand
						{
							OFFSET	3.168650	-24.865023	5.373370
							CHANNELS 3 Zrotation Xrotation Yrotation
							End Site
							{
								OFFSET	1.457528	-10.806075	2.170267
							}
						}
					}
				}
			}
			JOINT RightShoulder
			{
				OFFSET	-5.746115	20.990027	-0.833816
				CHANNELS 3 Zrotation Xrotation Yrotation
				JOINT RightArm
				{
					OFFSET	-10.881538	-1.359258	0.219250
					CHANNELS 3 Zrotation Xrotation Yrotation
					JOINT RightForeArm
					{
						OFFSET	-4.390314	-31.537147	0.202818
						CHANNELS 3 Zrotation Xrotation Yrotation
						JOINT RightHand
						{
							OFFSET	-3.168650	-24.865023	5.373370
							CHANNELS 3 Zrotation Xrotation Yrotation
							End Site
							{
								OFFSET	-1.457528	-10.806075	2.170267
							}
						}
					}
				}
			}
			JOINT Neck
			{
				OFFSET	0.000000	27.075639	0.680489
				CHANNELS 3 Zrotation Xrotation Yrotation
				JOINT Head
				{
					OFFSET	0.000000	12.391287	1.239129
					CHANNELS 3 Zrotation Xrotation Yrotation
					End Site
					{
						OFFSET	0.000000	13.818691	-0.105853
					}
				}
			}
		}
	}
}
MOTION
Frames:    6
Frame Time: 0.016667
5.673543	99.060716	0.140131	-9.708064	0.541140	-27.181889	8.217875	-4.678379	15.569874	6.101581	25.189035	5.944296	-7.769476	-16.209036	-0.675870	0.	0.	0.	7.280048	0.023615	3.021572	1.207574	0.080668	8.040872	2.463305	7.555590	13.909548	0.	0.	0.	1.873114	-1.969459	-2.642815	4.179286	-2.181119	-10.581421	0.177162	4.862202	6.997941	1.736478	-2.016454	-4.381144	2.517120	-7.860858	7.843870	1.524610	-0.036408	-19.542074	-3.865148	1.969481	4.988088	-13.381638	-57.989960	-16.619205	-39.677757	-145.349014	-41.572479	-50.796368	-36.652531	42.208622	9.003822	7.904937	-12.707973	1.916570	-17.266949	-1.460031	
5.646828	99.033895	0.151330	-9.729918	0.546842	-27.244398	8.244416	-4.715314	15.519308	6.124947	25.339293	6.013442	-7.809178	-16.288488	-0.663535	0.	0.	0.	7.314651	0.047444	3.052518	1.217800	0.070395	8.068853	2.439849	7.559608	13.912233	0.	0.	0.	1.879235	-1.935152	-2.641896	4.171754	-2.194296	-10.577072	0.201399	4.860191	6.976181	1.723000	-2.073296	-4.506594	2.502676	-8.168653	7.825132	1.548505	0.117908	-19.344376	-3.865114	1.962484	4.979320	-13.369706	-58.008789	-16.610512	-39.671562	-145.354111	-41.553360	-50.753441	-36.588619	42.231934	9.011965	7.897067	-12.726389	1.905156	-17.353338	-1.421668	
5.581589	99.023964	0.163366	-9.788764	0.530623	-27.356071	8.287170	-4.704926	15.528273	6.201544	25.569279	6.060406	-7.875648	-16.445620	-0.680974	0.	0.	0.	7.387671	0.123028	3.136538	1.235483	0.051024	8.085392	2.428534	7.578570	13.920349	0.	0.	0.	1.899538	-1.840430	-2.651372	4.193075	-2.227442	-10.509231	0.212806	4.858865	6.955173	1.685440	-2.160154	-4.811153	2.556978	-8.209795	8.090799	1.436013	-0.087010	-19.299717	-3.905826	1.953816	4.906500	-13.354045	-58.046234	-16.599373	-39.662281	-145.363571	-41.522621	-50.695580	-36.485462	42.263508	8.983020	7.898850	-12.801267	1.900577	-17.482359	-1.364331	
5.537357	99.018063	0.166135	-9.837592	0.522946	-27.456341	8.317826	-4.735356	15.477110	6.253281	25.796127	6.167777	-7.946784	-16.578423	-0.696119	0.	0.	0.	7.427241	0.165058	3.232641	1.285626	0.049705	8.079067	2.421306	7.600582	13.928437	0.	0.	0.	1.921391	-1.769581	-2.663109	4.221658	-2.249116	-10.490663	0.210308	4.853691	6.910848	1.642372	-2.225397	-5.001772	2.569793	-8.321901	8.184165	1.370050	-0.129018	-19.207079	-3.955485	1.930766	4.883324	-13.364543	-58.074245	-16.609657	-39.655380	-145.374695	-41.507668	-50.663887	-36.414360	42.306843	8.929195	7.924608	-12.807145	1.895154	-17.535765	-1.371344	
5.474094	99.006901	0.173553	-9.897860	0.550865	-27.541323	8.382759	-4.739676	15.467301	6.309300	25.964352	6.240950	-8.016612	-16.691402	-0.714075	0.	0.	0.	7.518335	0.196074	3.307793	1.308225	0.033244	8.082428	2.415162	7.622405	13.935573	0.	0.	0.	2.006914	-1.746331	-2.670537	4.211384	-2.251679	-10.506972	0.209654	4.842741	6.897696	1.585474	-2.268499	-5.155709	2.594425	-8.351298	8.218726	1.271406	-0.133993	-19.145130	-3.998111	1.894313	4.887261	-13.399446	-58.072235	-16.643042	-39.636276	-145.386948	-41.488037	-50.627979	-36.375759	42.348270	8.900870	7.909224	-12.787292	1.855362	-17.478296	-1.403960	
5.379501	98.994537	0.203806	-9.986479	0.594267	-27.651011	8.496464	-4.723705	15.554198	6.411338	26.131952	6.292776	-8.160341	-16.822296	-0.813875	0.	0.	0.	7.654514	0.262954	3.400835	1.336734	-0.013959	8.079337	2.418491	7.670880	13.912578	0.	0.	0.	2.142314	-1.722532	-2.663697	4.184042	-2.257698	-10.466536	0.234097	4.804145	6.821515	1.455516	-2.258117	-5.374386	2.632499	-8.216760	8.246135	1.119486	-0.076871	-19.158787	-4.027012	1.845470	4.797019	-13.434737	-58.012245	-16.670647	-39.609592	-145.406647	-41.430962	-50.621975	-36.376110	42.387287	8.899713	7.870222	-12.783824	1.748527	-17.221281	-1.581226	
